<svg width="20" height="22" viewBox="0 0 20 22" fill="none" xmlns="http://www.w3.org/2000/svg">
<path fill-rule="evenodd" clip-rule="evenodd" d="M7.00135 0H13.0014V3H16.0014C17.1014 3 18.0014 3.9 18.0014 5V9.62L19.2814 10.04C19.5414 10.12 19.7614 10.3 19.8814 10.54C20.0014 10.78 20.0214 11.06 19.9414 11.32L18.0514 18H18.0014C16.4014 18 14.9814 17.12 14.0014 16C13.0214 17.12 11.6014 18 10.0014 18C8.40135 18 6.98135 17.12 6.00135 16C5.02135 17.12 3.60135 18 2.00135 18H1.95135L0.0513534 11.32C-0.0386466 11.06 -0.00864656 10.78 0.111353 10.54C0.231353 10.3 0.451353 10.12 0.711353 10.04L2.00135 9.62V5C2.00135 3.9 2.90135 3 4.00135 3H7.00135V0ZM11.0014 2V3H9.00135V2H11.0014ZM10.0014 9.11L15.3814 10.88L17.7714 11.66L16.6514 15.63C16.1114 15.33 15.7114 14.92 15.5114 14.69L14.0014 12.96L12.4914 14.68C12.1514 15.08 11.2114 16 10.0014 16C8.79135 16 7.85135 15.08 7.51135 14.68L6.00135 12.96L4.49135 14.68C4.29135 14.91 3.89135 15.31 3.35135 15.61L2.22135 11.65L4.62135 10.86L10.0014 9.11ZM4.00135 8.97V5H16.0014V8.97L10.0014 7L4.00135 8.97ZM10.0014 19.96C11.3914 19.96 12.7814 19.53 14.0014 18.68C15.2214 19.53 16.6114 20 18.0014 20H20.0014V22H18.0014C16.6214 22 15.2614 21.66 14.0014 21.01C12.7414 21.66 11.3714 21.98 10.0014 21.98C8.63135 21.98 7.26135 21.65 6.00135 21.01C4.74135 21.65 3.38135 22 2.00135 22H0.00135343V20H2.00135C3.39135 20 4.78135 19.53 6.00135 18.68C7.22135 19.53 8.61135 19.96 10.0014 19.96Z" fill="#1C9768"/>
</svg>
