<svg width="22" height="20" viewBox="0 0 22 20" fill="none" xmlns="http://www.w3.org/2000/svg">
<path fill-rule="evenodd" clip-rule="evenodd" d="M11 0V4.4H22V19.8H0V0H11ZM2.2 17.6H4.4V15.4H2.2V17.6ZM4.4 13.2H2.2V11H4.4V13.2ZM2.2 8.8H4.4V6.6H2.2V8.8ZM4.4 4.4H2.2V2.2H4.4V4.4ZM6.6 17.6H8.8V15.4H6.6V17.6ZM8.8 13.2H6.6V11H8.8V13.2ZM6.6 8.8H8.8V6.6H6.6V8.8ZM8.8 4.4H6.6V2.2H8.8V4.4ZM19.8 17.6V6.6H11V8.8H13.2V11H11V13.2H13.2V15.4H11V17.6H19.8ZM17.6 8.8H15.4V11H17.6V8.8ZM15.4 13.2H17.6V15.4H15.4V13.2Z" fill="black" fill-opacity="0.54"/>
</svg>
