<svg width="16" height="18" viewBox="0 0 16 18" fill="none" xmlns="http://www.w3.org/2000/svg">
<path fill-rule="evenodd" clip-rule="evenodd" d="M13.8333 2.33317H10.35C10 1.3665 9.08333 0.666504 8 0.666504C6.91667 0.666504 6 1.3665 5.65 2.33317H2.16667C1.25 2.33317 0.5 3.08317 0.5 3.99984V15.6665C0.5 16.5832 1.25 17.3332 2.16667 17.3332H13.8333C14.75 17.3332 15.5 16.5832 15.5 15.6665V3.99984C15.5 3.08317 14.75 2.33317 13.8333 2.33317ZM8 2.12484C8.18333 2.12484 8.34167 2.20817 8.45833 2.33317C8.55833 2.4415 8.625 2.5915 8.625 2.74984C8.625 3.0915 8.34167 3.37484 8 3.37484C7.65833 3.37484 7.375 3.0915 7.375 2.74984C7.375 2.5915 7.44167 2.4415 7.54167 2.33317C7.65833 2.20817 7.81667 2.12484 8 2.12484ZM2.16667 3.99984V15.6665H13.8333V3.99984H2.16667ZM8 4.83317C6.625 4.83317 5.5 5.95817 5.5 7.33317C5.5 8.70817 6.625 9.83317 8 9.83317C9.375 9.83317 10.5 8.70817 10.5 7.33317C10.5 5.95817 9.375 4.83317 8 4.83317ZM7.16667 7.33317C7.16667 7.7915 7.54167 8.1665 8 8.1665C8.45833 8.1665 8.83333 7.7915 8.83333 7.33317C8.83333 6.87484 8.45833 6.49984 8 6.49984C7.54167 6.49984 7.16667 6.87484 7.16667 7.33317ZM3 13.5582V14.8332H13V13.5582C13 11.4748 9.69167 10.5748 8 10.5748C6.30833 10.5748 3 11.4665 3 13.5582ZM8 12.2332C6.90833 12.2332 5.5 12.6998 4.925 13.1665H11.075C10.5083 12.6998 9.09167 12.2332 8 12.2332Z" fill="#1C9768"/>
</svg>
