<svg width="13" height="13" viewBox="0 0 13 13" fill="none" xmlns="http://www.w3.org/2000/svg">
<path fill-rule="evenodd" clip-rule="evenodd" d="M10.25 1.5H10.875C11.5625 1.5 12.125 2.0625 12.125 2.75V11.5C12.125 12.1875 11.5625 12.75 10.875 12.75H2.125C1.4375 12.75 0.875 12.1875 0.875 11.5V2.75C0.875 2.0625 1.4375 1.5 2.125 1.5H2.75V0.25H4V1.5H9V0.25H10.25V1.5ZM2.125 11.5H10.875V5.25H2.125V11.5ZM2.125 4V2.75H10.875V4H2.125ZM9.30625 6.83125L5.6 10.5375L3.61875 8.55625L4.28125 7.89375L5.6 9.2125L8.64375 6.16875L9.30625 6.83125Z" fill="black" fill-opacity="0.54"/>
</svg>
