<svg width="15" height="13" viewBox="0 0 15 13" fill="none" xmlns="http://www.w3.org/2000/svg">
<path fill-rule="evenodd" clip-rule="evenodd" d="M11.1342 2.35273C11.0842 2.35273 11.0342 2.34221 10.9905 2.32116C9.79045 1.8001 8.75295 1.57905 7.5092 1.57905C6.2717 1.57905 5.0967 1.82642 4.02795 2.32116C3.87795 2.38958 3.69045 2.34221 3.60295 2.21589C3.5217 2.08958 3.57795 1.92642 3.72795 1.858C4.89045 1.32642 6.16545 1.05273 7.5092 1.05273C8.84045 1.05273 10.003 1.3001 11.278 1.85273C11.4342 1.92116 11.4905 2.07905 11.4092 2.20537C11.353 2.3001 11.2467 2.35273 11.1342 2.35273ZM2.19045 5.11589C2.12795 5.11589 2.06545 5.1001 2.0092 5.06852C1.86545 4.98431 1.8342 4.82116 1.9342 4.7001C2.55295 3.96326 3.34045 3.38431 4.27795 2.97905C6.24045 2.12642 8.75295 2.12116 10.7217 2.97379C11.6592 3.37905 12.4467 3.95273 13.0655 4.68431C13.1655 4.8001 13.1342 4.96852 12.9905 5.05273C12.8467 5.13695 12.653 5.11063 12.553 4.98958C11.9905 4.32642 11.278 3.80537 10.4342 3.44221C8.64045 2.66852 6.3467 2.66852 4.5592 3.44747C3.7092 3.81589 2.9967 4.34221 2.4342 5.00537C2.3842 5.07905 2.29045 5.11589 2.19045 5.11589ZM5.87795 11.3896C5.9342 11.4422 6.01545 11.4685 6.0967 11.4685C6.17795 11.4685 6.2592 11.4422 6.32795 11.3896C6.4467 11.2843 6.4467 11.1212 6.32795 11.0159C5.8467 10.6054 5.5717 10.3475 5.1717 9.74221C4.79045 9.17379 4.59045 8.47379 4.59045 7.71589C4.59045 6.44221 5.8967 5.40537 7.50295 5.40537C9.1092 5.40537 10.4155 6.44221 10.4155 7.71589C10.4155 7.86326 10.553 7.97905 10.728 7.97905C10.903 7.97905 11.0405 7.86326 11.0405 7.71589C11.0405 6.15273 9.45295 4.87905 7.50295 4.87905C5.55295 4.87905 3.96545 6.15273 3.96545 7.71589C3.96545 8.56326 4.19045 9.35273 4.6217 10.0001C5.04045 10.6369 5.3342 10.9317 5.87795 11.3896ZM10.578 10.4948C9.8342 10.4948 9.17795 10.3369 8.64045 10.0264C7.7092 9.49484 7.15295 8.63168 7.15295 7.71589C7.15295 7.56852 7.29045 7.45273 7.46545 7.45273C7.64045 7.45273 7.77795 7.56852 7.77795 7.71589C7.77795 8.458 8.22795 9.158 8.99045 9.58958C9.4342 9.84221 9.95295 9.96326 10.578 9.96326C10.728 9.96326 10.978 9.94747 11.228 9.91063C11.3967 9.88431 11.5592 9.97905 11.5905 10.1264C11.6217 10.2685 11.5092 10.4054 11.3342 10.4317C10.978 10.4896 10.6655 10.4948 10.578 10.4948ZM9.24045 11.5685C9.26545 11.5738 9.2967 11.5791 9.3217 11.5791C9.45295 11.5791 9.5842 11.5001 9.61545 11.3791C9.6592 11.2422 9.56545 11.0948 9.3967 11.058C8.51545 10.8527 7.9467 10.5791 7.35295 10.0843C6.5967 9.45273 6.1842 8.61063 6.1842 7.71063C6.1842 7.14747 6.76545 6.68958 7.4842 6.68958C8.20295 6.68958 8.7842 7.14747 8.7842 7.71063C8.7842 8.56326 9.6467 9.258 10.7092 9.258C11.7717 9.258 12.6342 8.56326 12.6342 7.71063C12.6342 5.43694 10.3217 3.58958 7.47795 3.58958C5.4592 3.58958 3.61545 4.54221 2.7842 6.01063C2.50295 6.51063 2.3592 7.08431 2.3592 7.71589C2.3592 8.42642 2.5092 9.11063 2.81545 9.8001C2.8717 9.93168 3.05295 10.0054 3.21545 9.95273C3.37795 9.90537 3.4592 9.75274 3.3967 9.61589C3.0217 8.77379 2.97795 8.12642 2.97795 7.71589C2.97795 7.16852 3.10295 6.66852 3.3467 6.24221C4.07795 4.95273 5.70295 4.12116 7.47795 4.12116C9.97795 4.12116 12.0092 5.73168 12.0092 7.71589C12.0092 8.27905 11.428 8.73695 10.7092 8.73695C9.99045 8.73695 9.4092 8.27905 9.4092 7.71589C9.4092 6.86326 8.5467 6.16852 7.4842 6.16852C6.4217 6.16852 5.5592 6.86326 5.5592 7.71589C5.5592 8.758 6.04045 9.73168 6.91545 10.4633C7.5967 11.0264 8.2467 11.3369 9.24045 11.5685Z" fill="black" fill-opacity="0.54"/>
</svg>
