<svg width="22" height="18" viewBox="0 0 22 18" fill="none" xmlns="http://www.w3.org/2000/svg">
<path fill-rule="evenodd" clip-rule="evenodd" d="M1.83333 0.75H20.1667C21.175 0.75 22 1.575 22 2.58333L21.9908 15.4167C21.9908 16.425 21.175 17.25 20.1667 17.25H1.83333C0.825 17.25 0 16.425 0 15.4167V2.58333C0 1.575 0.825 0.75 1.83333 0.75ZM20.1667 15.4167V2.58333H1.83333V15.4167H20.1667ZM19.25 3.5H12.8333V8.08333H19.25V3.5ZM16.0417 6.9375L18.3333 5.33333V4.41667L16.0417 6.02083L13.75 4.41667V5.33333L16.0417 6.9375ZM8.25 9C9.7625 9 11 7.7625 11 6.25C11 4.7375 9.7625 3.5 8.25 3.5C6.7375 3.5 5.5 4.7375 5.5 6.25C5.5 7.7625 6.7375 9 8.25 9ZM9.16667 6.25C9.16667 5.74583 8.75417 5.33333 8.25 5.33333C7.74583 5.33333 7.33333 5.74583 7.33333 6.25C7.33333 6.75417 7.74583 7.16667 8.25 7.16667C8.75417 7.16667 9.16667 6.75417 9.16667 6.25ZM13.75 13.2075C13.75 10.9158 10.1108 9.92583 8.25 9.92583C6.38917 9.92583 2.75 10.9158 2.75 13.2075V14.5H13.75V13.2075ZM8.25 11.75C7.05833 11.75 5.70167 12.2083 5.02333 12.6667H11.4767C10.7892 12.1992 9.44167 11.75 8.25 11.75Z" fill="black" fill-opacity="0.54"/>
</svg>
