<svg width="24" height="18" viewBox="0 0 24 18" fill="none" xmlns="http://www.w3.org/2000/svg">
<path fill-rule="evenodd" clip-rule="evenodd" d="M22 0H2C0.9 0 0 0.9 0 2V16C0 17.1 0.9 18 2 18H22C23.1 18 23.99 17.1 23.99 16L24 2C24 0.9 23.1 0 22 0ZM2 16V2H22V16H2ZM21 13L19.01 14.99C17.7 14.01 16.73 12.61 16.28 11C16.1 10.36 16 9.69 16 9C16 8.31 16.1 7.64 16.28 7C16.73 5.38 17.7 3.99 19.01 3.01L21 5L19.49 7H17.85C17.63 7.63 17.5 8.3 17.5 9C17.5 9.7 17.63 10.37 17.85 11H19.49L21 13ZM9 9C10.65 9 12 7.65 12 6C12 4.35 10.65 3 9 3C7.35 3 6 4.35 6 6C6 7.65 7.35 9 9 9ZM10 6C10 5.45 9.55 5 9 5C8.45 5 8 5.45 8 6C8 6.55 8.45 7 9 7C9.55 7 10 6.55 10 6ZM15 13.59C15 11.09 11.03 10.01 9 10.01C6.97 10.01 3 11.09 3 13.59V15H15V13.59ZM9 12C7.7 12 6.22 12.5 5.48 13H12.52C11.77 12.49 10.3 12 9 12Z" fill="black" fill-opacity="0.54"/>
</svg>
