<svg width="9" height="13" viewBox="0 0 9 13" fill="none" xmlns="http://www.w3.org/2000/svg">
<path fill-rule="evenodd" clip-rule="evenodd" d="M4.5 0.25C2.08125 0.25 0.125 2.20625 0.125 4.625C0.125 7.90625 4.5 12.75 4.5 12.75C4.5 12.75 8.875 7.90625 8.875 4.625C8.875 2.20625 6.91875 0.25 4.5 0.25ZM1.375 4.625C1.375 2.9 2.775 1.5 4.5 1.5C6.225 1.5 7.625 2.9 7.625 4.625C7.625 6.425 5.825 9.11875 4.5 10.8C3.2 9.13125 1.375 6.40625 1.375 4.625ZM2.9375 4.625C2.9375 3.76206 3.63706 3.0625 4.5 3.0625C5.05823 3.0625 5.57405 3.36031 5.85316 3.84375C6.13228 4.32719 6.13228 4.92281 5.85316 5.40625C5.57405 5.88969 5.05823 6.1875 4.5 6.1875C3.63706 6.1875 2.9375 5.48795 2.9375 4.625Z" fill="black" fill-opacity="0.54"/>
</svg>
