<svg width="22" height="16" viewBox="0 0 22 16" fill="none" xmlns="http://www.w3.org/2000/svg">
<path fill-rule="evenodd" clip-rule="evenodd" d="M19 4H16V0H2C0.9 0 0 0.9 0 2V13H2C2 14.66 3.34 16 5 16C6.66 16 8 14.66 8 13H14C14 14.66 15.34 16 17 16C18.66 16 20 14.66 20 13H22V8L19 4ZM18.5 5.5L20.46 8H16V5.5H18.5ZM4 13C4 13.55 4.45 14 5 14C5.55 14 6 13.55 6 13C6 12.45 5.55 12 5 12C4.45 12 4 12.45 4 13ZM7.22 11C6.67 10.39 5.89 10 5 10C4.11 10 3.33 10.39 2.78 11H2V2H14V11H7.22ZM16 13C16 13.55 16.45 14 17 14C17.55 14 18 13.55 18 13C18 12.45 17.55 12 17 12C16.45 12 16 12.45 16 13Z" fill="#1C9768"/>
</svg>
