<svg width="13" height="13" viewBox="0 0 13 13" fill="none" xmlns="http://www.w3.org/2000/svg">
<path fill-rule="evenodd" clip-rule="evenodd" d="M0.25 6.5C0.25 3.05 3.05 0.25 6.5 0.25C9.95 0.25 12.75 3.05 12.75 6.5C12.75 9.95 9.95 12.75 6.5 12.75C3.05 12.75 0.25 9.95 0.25 6.5ZM1.5 6.5C1.5 9.25625 3.74375 11.5 6.5 11.5C9.25625 11.5 11.5 9.25625 11.5 6.5C11.5 3.74375 9.25625 1.5 6.5 1.5C3.74375 1.5 1.5 3.74375 1.5 6.5ZM8.375 3.0625V4.625H5.875V5.875H8.375V7.4375L10.5625 5.25L8.375 3.0625ZM2.4375 7.75L4.625 5.5625V7.125H7.125V8.375H4.625V9.9375L2.4375 7.75Z" fill="black" fill-opacity="0.54"/>
</svg>
