<svg width="15" height="15" viewBox="0 0 15 15" fill="none" xmlns="http://www.w3.org/2000/svg">
<path fill-rule="evenodd" clip-rule="evenodd" d="M13.75 2.5V2.1875C13.75 1.325 13.05 0.625 12.1875 0.625C11.325 0.625 10.625 1.325 10.625 2.1875V2.5C10.2812 2.5 10 2.78125 10 3.125V5.625C10 5.96875 10.2812 6.25 10.625 6.25H13.75C14.0938 6.25 14.375 5.96875 14.375 5.625V3.125C14.375 2.78125 14.0938 2.5 13.75 2.5ZM11.875 8.125C11.875 7.9125 11.85 7.70625 11.825 7.5H13.0938C13.1125 7.70625 13.125 7.9125 13.125 8.125C13.125 11.575 10.325 14.375 6.875 14.375C3.425 14.375 0.625 11.575 0.625 8.125C0.625 4.675 3.425 1.875 6.875 1.875C7.53125 1.875 8.15625 1.975 8.75 2.1625V3.75C8.75 4.4375 8.1875 5 7.5 5H6.25V6.25C6.25 6.59375 5.96875 6.875 5.625 6.875H4.375V8.125H8.125C8.46875 8.125 8.75 8.40625 8.75 8.75V10.625H9.375C9.9375 10.625 10.4 10.9875 10.5625 11.4938C11.375 10.6062 11.875 9.425 11.875 8.125ZM1.875 8.125C1.875 10.675 3.78125 12.775 6.25 13.0813V11.875C5.5625 11.875 5 11.3125 5 10.625V10L2.00625 7.00625C1.925 7.36875 1.875 7.7375 1.875 8.125ZM11.25 2.5H13.125V2.1875C13.125 1.66875 12.7063 1.25 12.1875 1.25C11.6687 1.25 11.25 1.66875 11.25 2.1875V2.5Z" fill="black" fill-opacity="0.54"/>
</svg>
